<svg xmlns="http://www.w3.org/2000/svg" width="359.999" height="216.502" viewBox="0 0 359.999 216.502">
  <path id="logo_ym" d="M223.363,260.757h18.779L312.6,74.557H294.007ZM206.525,147.578H185.148a1.007,1.007,0,0,0-.643.253,1.127,1.127,0,0,0-.439.532q-5.743,17.068-11.437,33.939-5.7,16.889-11.425,34.021L138.25,148.357a1.244,1.244,0,0,0-.458-.532,1.082,1.082,0,0,0-.656-.254H115.87a1.012,1.012,0,0,0-.9.5,1.26,1.26,0,0,0-.08,1.1q8.973,24.123,17.9,48.16c5.654,15.253,12.371,33.116,18.173,48.655a43.616,43.616,0,0,1-4.472,11.58c-2.276,4.146-6.99,9.8-16.435,11.914l-2.122.339s-.816.316-.816,4.572.043,15.767.043,15.767-.043.9,2.895.9c2.827,0,25.688.748,39.111-33.884a.266.266,0,0,0,.068.006L207.6,149.168a1.236,1.236,0,0,0-.068-1.1A1.085,1.085,0,0,0,206.525,147.578Zm257,8.04q-11.388-9.12-23.374-9.136-19.584,0-31.762,12.594a47.842,47.842,0,0,0-5.244-4.714,57.044,57.044,0,0,0-5.757-3.915c-4.419-2.629-10.137-3.965-17.2-3.965q-15.856,0-25.347,10.311v-8.036a1.041,1.041,0,0,0-.88-1.18,1.054,1.054,0,0,0-.3,0h-20.2a1.036,1.036,0,0,0-1.181.864,1.013,1.013,0,0,0,0,.316V249.379a1.037,1.037,0,0,0,.866,1.181,1.015,1.015,0,0,0,.316,0h20.2a1.041,1.041,0,0,0,1.182-.88,1.007,1.007,0,0,0,0-.3V189.44q0-9.936,5.151-15.085a18.493,18.493,0,0,1,13.647-5.35,18.126,18.126,0,0,1,13.369,5.35q5.348,5.352,5.352,15.085v59.939c0,.8.352,1.18,1.064,1.18h20.2c.747,0,1.108-.383,1.108-1.18V189.44c0-6.537,1.738-11.584,5.244-15.085a18.51,18.51,0,0,1,13.677-5.35,18.107,18.107,0,0,1,13.33,5.35c3.511,3.5,5.259,8.549,5.259,15.085v59.939a1.032,1.032,0,0,0,1.177,1.18h20.186l1.194-68.065Q474.8,164.848,463.525,155.618Z" transform="translate(-114.8 -74.557)"/>
</svg>
